<mxfile host="app.diagrams.net" modified="2024-04-28T08:11:35.062Z" agent="Mozilla/5.0 (Windows NT 10.0; Win64; x64) AppleWebKit/537.36 (KHTML, like Gecko) Chrome/124.0.0.0 Safari/537.36" etag="VL-euC-rrJq-QcMzeAM0" version="24.3.1" type="device">
  <diagram name="Page-1" id="L5KTXVcr0oNEPKVC4NJJ">
    <mxGraphModel dx="596" dy="409" grid="1" gridSize="10" guides="1" tooltips="1" connect="1" arrows="1" fold="1" page="1" pageScale="1" pageWidth="827" pageHeight="1169" math="0" shadow="0">
      <root>
        <mxCell id="0" />
        <mxCell id="1" parent="0" />
        <mxCell id="F4yfr8nrS1ci_nFrl0AD-1" value="R" style="pointerEvents=1;verticalLabelPosition=bottom;shadow=0;dashed=0;align=center;html=1;verticalAlign=top;shape=mxgraph.electrical.resistors.resistor_2;" vertex="1" parent="1">
          <mxGeometry x="240" y="270" width="100" height="20" as="geometry" />
        </mxCell>
        <mxCell id="F4yfr8nrS1ci_nFrl0AD-5" style="edgeStyle=orthogonalEdgeStyle;rounded=0;orthogonalLoop=1;jettySize=auto;html=1;exitX=1;exitY=0.645;exitDx=0;exitDy=0;exitPerimeter=0;entryX=0;entryY=0.5;entryDx=0;entryDy=0;entryPerimeter=0;endArrow=none;endFill=0;" edge="1" parent="1" source="F4yfr8nrS1ci_nFrl0AD-2" target="F4yfr8nrS1ci_nFrl0AD-4">
          <mxGeometry relative="1" as="geometry">
            <mxPoint x="480" y="280.1111111111111" as="targetPoint" />
          </mxGeometry>
        </mxCell>
        <mxCell id="F4yfr8nrS1ci_nFrl0AD-2" value="L" style="pointerEvents=1;verticalLabelPosition=bottom;shadow=0;dashed=0;align=center;html=1;verticalAlign=top;shape=mxgraph.electrical.inductors.inductor_5;" vertex="1" parent="1">
          <mxGeometry x="360" y="271" width="100" height="14" as="geometry" />
        </mxCell>
        <mxCell id="F4yfr8nrS1ci_nFrl0AD-3" style="edgeStyle=orthogonalEdgeStyle;rounded=0;orthogonalLoop=1;jettySize=auto;html=1;exitX=1;exitY=0.5;exitDx=0;exitDy=0;exitPerimeter=0;entryX=0;entryY=0.645;entryDx=0;entryDy=0;entryPerimeter=0;endArrow=none;endFill=0;" edge="1" parent="1" source="F4yfr8nrS1ci_nFrl0AD-1" target="F4yfr8nrS1ci_nFrl0AD-2">
          <mxGeometry relative="1" as="geometry" />
        </mxCell>
        <mxCell id="F4yfr8nrS1ci_nFrl0AD-6" style="edgeStyle=orthogonalEdgeStyle;rounded=0;orthogonalLoop=1;jettySize=auto;html=1;exitX=1;exitY=0.5;exitDx=0;exitDy=0;exitPerimeter=0;endArrow=none;endFill=0;" edge="1" parent="1" source="F4yfr8nrS1ci_nFrl0AD-4">
          <mxGeometry relative="1" as="geometry">
            <mxPoint x="480" y="400" as="targetPoint" />
          </mxGeometry>
        </mxCell>
        <mxCell id="F4yfr8nrS1ci_nFrl0AD-4" value="" style="pointerEvents=1;verticalLabelPosition=bottom;shadow=0;dashed=0;align=center;html=1;verticalAlign=top;shape=mxgraph.electrical.capacitors.capacitor_1;direction=south;" vertex="1" parent="1">
          <mxGeometry x="450" y="290" width="60" height="100" as="geometry" />
        </mxCell>
        <mxCell id="F4yfr8nrS1ci_nFrl0AD-7" style="edgeStyle=orthogonalEdgeStyle;rounded=0;orthogonalLoop=1;jettySize=auto;html=1;endArrow=none;endFill=0;startArrow=oval;startFill=1;" edge="1" parent="1">
          <mxGeometry relative="1" as="geometry">
            <mxPoint x="200" y="400" as="sourcePoint" />
            <mxPoint x="480" y="400" as="targetPoint" />
          </mxGeometry>
        </mxCell>
        <mxCell id="F4yfr8nrS1ci_nFrl0AD-8" value="C" style="text;html=1;align=center;verticalAlign=middle;resizable=0;points=[];autosize=1;strokeColor=none;fillColor=none;" vertex="1" parent="1">
          <mxGeometry x="420" y="325" width="30" height="30" as="geometry" />
        </mxCell>
        <mxCell id="F4yfr8nrS1ci_nFrl0AD-9" value="" style="endArrow=classic;html=1;rounded=0;" edge="1" parent="1">
          <mxGeometry width="50" height="50" relative="1" as="geometry">
            <mxPoint x="200" y="380" as="sourcePoint" />
            <mxPoint x="200" y="300" as="targetPoint" />
          </mxGeometry>
        </mxCell>
        <mxCell id="F4yfr8nrS1ci_nFrl0AD-10" value="V" style="edgeLabel;html=1;align=center;verticalAlign=middle;resizable=0;points=[];labelBackgroundColor=none;" vertex="1" connectable="0" parent="F4yfr8nrS1ci_nFrl0AD-9">
          <mxGeometry x="0.0528" y="2" relative="1" as="geometry">
            <mxPoint x="12" y="2" as="offset" />
          </mxGeometry>
        </mxCell>
        <mxCell id="F4yfr8nrS1ci_nFrl0AD-11" value="" style="endArrow=none;html=1;rounded=0;entryX=0;entryY=0.5;entryDx=0;entryDy=0;entryPerimeter=0;endFill=0;startArrow=oval;startFill=1;" edge="1" parent="1" target="F4yfr8nrS1ci_nFrl0AD-1">
          <mxGeometry width="50" height="50" relative="1" as="geometry">
            <mxPoint x="200" y="280" as="sourcePoint" />
            <mxPoint x="380" y="350" as="targetPoint" />
          </mxGeometry>
        </mxCell>
      </root>
    </mxGraphModel>
  </diagram>
</mxfile>
